PathFileType	4	(X/Y/Z)	C:/Users/beibeiliu/ov580/test_trc/User3\sequence.38_training_dense_right.trc
DataRate	CameraRate	NumFrames	NumMarkers	Units	OrigDataRate	OrigDataStartFrame	OrigNumFrames
120	120	8	19	mm	120	32	93
Frame#	Time	ThumbCMC			ThumbMCP			ThumbIP			ThumbTip			IndexMCP			IndexPIP			IndexTip			MiddleMCP			MiddlePIP			MiddleTip			RingMCP			RingPIP			RingTip			PinkyMCP			PinkyPIP			PinkyTip			BackHand1			BackHand2			BackHand3	
		X0	Y0	Z0	X1	Y1	Z1	X2	Y2	Z2	X3	Y3	Z3	X4	Y4	Z4	X5	Y5	Z5	X6	Y6	Z6	X7	Y7	Z7	X8	Y8	Z8	X9	Y9	Z9	X10	Y10	Z10	X11	Y11	Z11	X12	Y12	Z12	X13	Y13	Z13	X14	Y14	Z14	X15	Y15	Z15	X16	Y16	Z16	X17	Y17	Z17	X18	Y18	Z18	
31	0.258333	103.05	26.0183	34.3011	83.2584	24.1862	2.66766	73.3941	22.0107	-22.6791	76.0383	13.9599	-49.0813	122.788	62.8949	-28.8667	112.398	69.8576	-57.9708	102.691	66.2335	-82.2469	132.225	50.8582	-45.576	113.217	38.8636	-68.9295	88.1252	7.10933	-63.8113	151.532	41.1936	-40.5297	143.744	41.5597	-68.7363	124.63	30.5561	-86.6108	167.283	16.5069	-28.081	169.892	24.0464	-51.495	162.632	23.8228	-77.0753	160.777	26.024	10.8672	165.22	15.8694	40.3972	141.036	38.667	32.9128	
32	0.266667	107.962	31.093	35.0802	88.2078	29.0385	0.955842	76.4054	27.6338	-26.4026	79.0594	15.5138	-50.0936	133.816	57.2784	-33.7194	121.308	63.6743	-64.6725	110.921	59.3927	-84.4446	141.065	41.1258	-45.843	116.461	33.8027	-70.9464	91.6222	5.45744	-66.5493	157.504	27.2423	-42.7756	147.782	28.5648	-70.9847	125.279	13.4444	-89.3963	167.622	4.26551	-27.9088	174.166	5.1374	-54.1059	161.641	5.98364	-80.5493	168.922	15.4149	9.52257	170.401	4.98344	35.2827	150.062	36.5829	26.6155	
33	0.275	122.779	33.9873	28.2921	100.564	34.639	1.35877	87.6272	31.5871	-26.685	85.0139	19.2487	-53.0112	149.967	47.43	-45.6674	141.487	48.2269	-70.9641	128.228	41.8874	-92.8601	154.792	22.1621	-51.3722	129.539	21.1379	-76.079	96.2244	7.11503	-70.2742	165.114	6.60497	-50.3845	154.155	4.8774	-75.5006	129.779	-4.78915	-88.4954	171.163	-14.7096	-31.306	174.737	-17.5281	-55.4305	164.376	-20.3279	-83.3195	176.13	2.29574	7.03928	174.515	-3.15317	32.7027	161.026	30.9486	25.2205	
34	0.283333	137.579	33.4102	20.2659	114.54	37.5328	-7.7305	102.843	31.9971	-30.072	93.154	21.0448	-55.9446	165.063	28.4589	-50.2814	154.372	34.7316	-80.6214	140.94	30.5925	-98.4473	162.72	13.0169	-58.8902	140.055	10.0922	-79.3784	101.384	2.95505	-72.2502	170.116	-7.88783	-50.3983	159	-12.0479	-75.2728	127.62	-12.8393	-90.0582	171.181	-29.5422	-31.4278	173.242	-36.4362	-55.717	164.146	-36.9319	-79.7849	178.352	-12.6056	6.29259	177.193	-13.2346	34.5849	174.051	21.2995	17.1835	
35	0.291667	145.48	31.77	19.8979	122.454	36.1464	-12.6669	106.812	34.7675	-35.7145	99.7692	19.3588	-55.0456	173.577	25.6777	-56.5642	163.939	23.4419	-79.9788	148.996	26.1578	-101.807	169.596	2.04122	-62.8056	145.641	1.58771	-83.5107	109.52	-1.90246	-79.1961	173.913	-19.9505	-50.4747	160.112	-18.4665	-79.6871	129.516	-21.9724	-90.8459	174.432	-36.9989	-33.2799	174.814	-43.8608	-52.8022	163.399	-47.9099	-78.8753	183.967	-15.2582	4.21321	180.726	-18.6251	35.3694	182.022	12.9193	15.6348	
36	0.3	150.115	30.7485	13.4337	126.673	33.5038	-11.1899	110.832	31.5842	-41.9802	100.852	19.0252	-58.4875	178.841	17.394	-56.895	169.975	22.4419	-83.1434	154.682	18.5647	-103.154	174.065	0.417124	-63.2985	152.073	-2.28078	-84.2729	112.275	0.721408	-83.4462	177.263	-22.1952	-51.1454	162.071	-24.3075	-80.26	132.614	-22.5407	-89.4859	173.858	-42.6582	-29.7146	176.68	-51.7022	-58.5433	168.583	-52.3081	-77.3328	184.152	-18.9463	2.98303	184.192	-19.5596	29.244	184.925	11.1817	16.7931	
37	0.308333	151.777	28.0246	17.6938	129.277	32.3135	-12.1983	115.122	27.6322	-43.8124	106.719	13.6141	-60.9278	181.065	15.6644	-54.2162	173.567	15.2582	-81.3774	157.667	18.8304	-104.663	176.361	-3.58895	-62.0469	151.507	-5.61708	-82.4729	113.722	-3.62477	-76.1232	181.81	-24.0265	-50.0169	164.592	-25.1356	-79.358	136.674	-21.5007	-85.5709	178.157	-45.0209	-30.6145	179.903	-51.9797	-57.1086	168.993	-51.4069	-79.9364	188.481	-21.7003	5.50245	187.185	-24.5187	30.6281	188.353	10.0029	12.3668	
38	0.316667	152.601	28.7939	18.7793	131.366	30.5026	-12.0147	118.4	25.2629	-42.7367	108.909	13.0047	-58.5044	181.489	14.4344	-56.9497	173.311	16.3011	-83.2012	156.289	14.3498	-104.378	176.273	-6.40424	-59.6977	151.717	-2.27721	-81.0061	112.395	0.153281	-72.8207	181.806	-22.0369	-52.7323	167.974	-26.879	-76.579	135.869	-20.8016	-82.373	177.912	-43.2763	-28.2119	180.537	-52.8574	-51.3394	170	-51.9783	-75.5769	187.081	-21.2337	5.7759	187.123	-21.2267	31.2448	190.084	9.27368	14.566	
